<svg id="Capa_1" xmlns="http://www.w3.org/2000/svg" viewBox="0 0 97.8 97.8"><style>.st0{fill:#6c6b6b}</style><path class="st0" d="M50.7 33.7c0-6.8-4-17.3-11.8-17.3-2.4 0-5.1 1.2-6.6 3.1-1.6 2-2.1 4.5-2.1 7 0 6.3 3.7 16.7 11.7 16.7 2.3 0 4.9-1.1 6.4-2.6 2.2-2.2 2.4-5.2 2.4-6.9zM45.7 58.4c-.7-.1-1.2-.1-2.2-.1-.8 0-5.9.2-9.9 1.5-2.1.7-8.1 3-8.1 9.7C25.6 76.2 32 81 42.1 81c9 0 13.8-4.3 13.8-10.2 0-4.8-3.1-7.3-10.2-12.4z"/><path class="st0" d="M48.9 0C21.9 0 0 21.9 0 48.9s21.9 48.9 48.9 48.9 48.9-21.9 48.9-48.9S75.9 0 48.9 0zM37.5 84.9c-13.6 0-20.2-6.5-20.2-13.5 0-3.4 1.7-8.2 7.2-11.5 5.8-3.6 13.7-4 17.9-4.3-1.3-1.7-2.8-3.5-2.8-6.4 0-1.6.5-2.5.9-3.7-1 .1-2.1.2-3 .2C27.6 45.8 22 38.4 22 31c0-4.3 2-9.1 6-12.6 5.4-4.4 12.7-5.6 17.7-5.6h18.5l-6.1 3.8h-5.8c2.2 1.8 6.7 5.5 6.7 12.7 0 7-3.9 10.3-7.9 13.4-1.2 1.2-2.6 2.5-2.6 4.6 0 2.1 1.4 3.2 2.4 4l3.4 2.6c4.1 3.5 7.9 6.7 7.9 13.2 0 8.9-8.6 17.8-24.7 17.8zM78 47.7v9.5h-4.6v-9.5H64V43h9.4v-9.4H78V43h9.4v4.7H78z"/></svg>