<svg xmlns="http://www.w3.org/2000/svg" width="30" height="30" viewBox="0 0 512 512"><path d="M319.317 213.333H153.6v76.8h83.345c-11.204 31.855-38.357 51.2-73.054 51.2-46.386 0-87.09-39.893-87.09-85.367 0-45.44 40.704-85.3 87.09-85.3 22.18 0 40.927 7.084 54.222 20.472l6.033 6.084 57.148-57.148-6.212-6.033c-27.05-26.282-65.492-40.174-111.188-40.174C71.996 93.866 0 165.07 0 255.966c0 90.93 71.996 162.167 163.89 162.167 84.71 0 144.897-49.698 157.074-129.698 1.587-10.377 2.398-21.3 2.406-32.47 0-12.26-1.05-25.565-2.807-35.575l-1.246-7.057zm141.526-.041v-51.158h-59.776v51.2h-51.2v59.734h51.2v51.2h59.776v-51.2H512v-59.776"/></svg>