<svg data-name="1" xmlns="http://www.w3.org/2000/svg" viewBox="0 0 340.75 112.05"><title>logo</title><path d="M24.08 14.31a6 6 0 0 1 1.32 4 123.41 123.41 0 0 1-1 14l-1 8.4.38.93q7.12-11.62 11-17.63 9.33-14 12.3-15.67c1.27.38 3 1.88 5.22 4.48A9.23 9.23 0 0 1 54.4 16q-.28.72-12.4 22.32c-2.15 3.87-4 7.57-5.52 11.07l9.13 14.12q3.27 5.22 3.27 6.7 0 1.7-5.63 6.9t-7.35 5.2q-3.9 0-8.7-10.2c-1.07-2.25-3.1-6.77-6.1-13.58-.93.72-1.63 3.4-2.1 8q-1.7 16.6-2.3 17.58a29.44 29.44 0 0 1-9.12-1.72q-6.3-2.1-7.08-4.78 2.1-6 4.88-23.2l4.53-27.5q2.3-13.72 4.2-14.4a59 59 0 0 1 10 1.8zm76.22 2.1c-1.83-1.33-4.93-2.62-9.33-3.85a40.23 40.23 0 0 0-10.3-1.87 13.49 13.49 0 0 0-2.1.58q-5.37 6.7-21.38 50.3-6.1 16.7-6.1 19.63c0 1.52 1.4 2.87 4.2 4a23.49 23.49 0 0 0 10 1.57l1.52-.1c.45-3.13.95-6.28 1.47-9.48a45 45 0 0 1 2.4-9.12 43.92 43.92 0 0 1 5 .4 41 41 0 0 0 4.95.42h1.22a5.8 5.8 0 0 0 1.47-.18 66.08 66.08 0 0 0 1.32 12.4c1.28.92 3.28 1.37 6 1.37a22.36 22.36 0 0 0 6.4-1.17c2.8-1 4.57-2 5.32-3.23a179.17 179.17 0 0 1-2.93-34.27q0-4.12.72-12.37t.7-12.35a7.58 7.58 0 0 0-.48-2.68zM85.07 38.88l-.93 15.87q-3 2.3-10.1 2.1 8.53-26.73 11.13-29.55c.38 0 .58.93.58 2.78a30.23 30.23 0 0 1-.2 3.28c-.27 2.6-.42 4.43-.48 5.52zm64.55-6.8q0 12.8-15 23.2a105.68 105.68 0 0 1-12.2 7.13c-.45.85-.9 3.77-1.32 8.78q-1 13.93-4.3 13.92a29.48 29.48 0 0 1-8.1-1.62c-3.78-1.2-6.13-2.43-7.08-3.7q1.23-9.62 3.22-20.8.3-1.72 3.77-20.8 3-16.13 3.72-20.9c.12-.78 1.2-2.18 3.22-4.2q1-1.23 13.08-1.23a21.07 21.07 0 0 1 15 5.67 19.14 19.14 0 0 1 6 14.55zm-22-7.8l-5.1 25.33c2.67-1 5.15-3.77 7.42-8.3q3.07-6.3 3.08-11c0-3.45-1.82-5.45-5.42-6zm44.33-10a59 59 0 0 0-10-1.8q-1.9.68-4.2 14.4l-4.53 27.48q-2.8 17.2-4.88 23.2.78 2.67 7.08 4.78a29.44 29.44 0 0 0 9.12 1.72q.6-1 2.3-17.58c.47-4.62 1.17-7.3 2.1-8 3 6.82 5 11.33 6.1 13.58q4.8 10.2 8.7 10.2 1.7 0 7.35-5.2t5.63-6.9q0-1.47-3.27-6.7l-9.13-14.12c1.53-3.5 3.37-7.2 5.52-11.07q12.1-21.6 12.4-22.32a9.23 9.23 0 0 0-2.1-3.18c-2.22-2.6-4-4.1-5.22-4.48q-3 1.7-12.3 15.67-3.88 6-11 17.63l-.38-.93 1-8.4a123.41 123.41 0 0 0 1-14 6 6 0 0 0-1.32-4zm76.22 2.1a7.58 7.58 0 0 1 .48 2.68q0 4.1-.7 12.35t-.72 12.37a179.17 179.17 0 0 0 2.93 34.27c-.75 1.2-2.52 2.28-5.32 3.23a22.36 22.36 0 0 1-6.4 1.17c-2.73 0-4.73-.45-6-1.37a66.08 66.08 0 0 1-1.32-12.4 5.8 5.8 0 0 1-1.47.18h-1.22a41 41 0 0 1-4.95-.42 43.92 43.92 0 0 0-5-.4 45 45 0 0 0-2.4 9.12c-.52 3.2-1 6.35-1.47 9.48l-1.52.1a23.5 23.5 0 0 1-10-1.57c-2.8-1.13-4.2-2.48-4.2-4q0-3 6.1-19.63 16-43.6 21.38-50.3a13.49 13.49 0 0 1 2.1-.58 40.23 40.23 0 0 1 10.3 1.87c4.4 1.23 7.5 2.52 9.33 3.85zm-15.26 22.5c.07-1.08.22-2.92.48-5.52a30.23 30.23 0 0 0 .2-3.28c0-1.85-.2-2.78-.58-2.78q-2.6 2.85-11.13 29.55 7.12.2 10.1-2.1l.93-15.87zm58.1 41.6l9.18-42.38-.3-.68c-.68.45-2.12 3.65-4.28 9.57l-6.49 17.62q-3.62 9.55-6 12.3c-2.68 0-4.42-.47-5.23-1.42-.45-.52-1.08-5.87-1.9-16q-1.28-16.25-2.2-19.1c-.65.63-1.42 4.25-2.3 10.9l-2.48 19.72c-.95 7.07-1.93 11.3-3 12.7a8.59 8.59 0 0 1-2.2.4q-5.7 0-12.83-4.3a7.78 7.78 0 0 1-.4-1.08 10.52 10.52 0 0 1-.38-1.12q0-3.73 2.88-15.92 2.3-9.48 6.1-23.68 1.7-6 5-18.12c1-3.58 3.5-5.37 7.57-5.37a30.43 30.43 0 0 1 6.73.87c.92.2 3.12.83 6.6 1.92a17.62 17.62 0 0 1 .38 4.48c0 .82 0 2-.1 3.72s-.1 2.9-.1 3.72v12.58l.4 1.28q1.7-2.3 4.88-10.4 1.9-4.9 8.4-21.48a6.32 6.32 0 0 1 1.9-.5 27.94 27.94 0 0 1 14.9 4.68l1.32 2.4-.1 1.42q-.1 1.7-1.72 16.5-1.8 16.8-3.07 27.4-1.82 15-2.87 18c-.7 2-3.72 3-9.05 3-4.97-.01-8.05-1.23-9.23-3.63z" fill="#ef7c00" fill-rule="evenodd"/><path d="M331.77 0a9.1 9.1 0 0 1 4.43 1.16 8.32 8.32 0 0 1 3.34 3.31 9 9 0 0 1 0 9 8.53 8.53 0 0 1-3.32 3.32 9 9 0 0 1-8.94 0 8.52 8.52 0 0 1-3.32-3.32 9 9 0 0 1 0-9 8.32 8.32 0 0 1 3.34-3.31A9.1 9.1 0 0 1 331.73 0zm0 1.78a7.33 7.33 0 0 0-3.55.92 6.7 6.7 0 0 0-2.68 2.66 7.21 7.21 0 0 0 0 7.22 6.81 6.81 0 0 0 2.66 2.67 7.19 7.19 0 0 0 7.18 0 6.85 6.85 0 0 0 2.67-2.67 7.19 7.19 0 0 0 0-7.22 6.69 6.69 0 0 0-2.68-2.66 7.38 7.38 0 0 0-3.56-.92zm-4.06 12h1.94V9.87h.5a2.13 2.13 0 0 1 1.33.4 6.42 6.42 0 0 1 1.32 2l.79 1.55h2.4l-1.08-1.96c-.4-.68-.63-1.06-.7-1.16a4.77 4.77 0 0 0-.64-.73 2.39 2.39 0 0 0-.66-.36 3.07 3.07 0 0 0 1.88-.91 2.51 2.51 0 0 0 .67-1.76 2.67 2.67 0 0 0-.36-1.36 2.38 2.38 0 0 0-.89-.91 3.69 3.69 0 0 0-1.49-.38h-4.93v9.5zm1.94-5.42h.78a9.64 9.64 0 0 0 2.07-.13 1.22 1.22 0 0 0 .64-.44 1.19 1.19 0 0 0 .23-.72 1.15 1.15 0 0 0-.23-.7 1.25 1.25 0 0 0-.65-.44 9.33 9.33 0 0 0-2.06-.13h-.78v2.57z" fill="#1a1a18" fill-rule="evenodd"/><rect y="92.52" width="307.55" height="19.53" rx="2.83" ry="2.83" fill="#1a1a18"/><path d="M20.24 103.16c0-6.69-.66-8-5.7-8a31.31 31.31 0 0 0-5.63.45v1.63s2.49-.24 5.1-.22c3 0 3.48 0 3.52 4.88h-8v1.71h8c0 5.15-.15 5.15-3.56 5.19-2.66 0-5.21-.24-5.21-.24v1.63a30.93 30.93 0 0 0 5.76.46c5.46 0 5.76-1.3 5.76-7.5zm55.15 7.24v-1.85h-8.6v-4.94h7.79v-1.72h-7.79v-4.62h8.47v-1.85H64.13v15h11.26zm29 0l-5.87-7.63 5.61-7.33h-3.15l-4.84 6.36H93.7v-6.36h-2.66v15h2.66v-6.67h2.44l5 6.67h3.21zm26.27-13v-1.94h-12.37v1.94h4.86v13h2.66v-13h4.88zm27.48 2.64c0-4.44-2-4.58-5.21-4.58h-7.02v15h2.66v-6h4.55c3.37 0 5.1-.15 5.1-4.42zm-2.75 0c0 2.57-.37 2.57-2.9 2.57h-4v-5.28h3.94c2.51 0 3 0 3 2.71zm31 3.08c0-7.15-.81-7.9-6.49-7.9s-6.51.75-6.51 7.9c0 6.84.44 7.59 6.51 7.59s6.49-.75 6.49-7.59zm-2.71.09c0 5.54-.09 5.54-3.7 5.54h-.2c-3.61 0-3.67 0-3.67-5.54v-.2c0-5.83.29-5.83 3.67-5.83h.2c3.41 0 3.7 0 3.7 5.83v.2zm31.31 7.24v-15h-2.68v6.36h-7.17v-6.36h-2.66v15h2.66v-6.67h7.17v6.67h2.68zm28.84 0v-15h-2.57l-7.35 11.27V95.43h-2.57v15h2.57l7.37-11.29v11.29h2.57zm29.68 0l-5.87-7.63 5.61-7.33h-3.15l-4.84 6.36h-2.44v-6.36h-2.66v15h2.66v-6.67h2.44l5 6.67h3.21zm26.27-.2v-1.74s-2.55.26-5.21.24c-3.45 0-3.56 0-3.56-5.52 0-6 .33-6 3.52-6.05 2.64 0 5.13.22 5.13.22v-1.79a31.73 31.73 0 0 0-5.7-.44c-5 0-5.68 1.3-5.68 8 0 6.2.31 7.5 5.76 7.5a30.81 30.81 0 0 0 5.76-.47z" fill="#fff" fill-rule="evenodd"/><path fill="#1a1a18" fill-rule="evenodd" d="M49.35 95.44h-2.77l-4.49 13-4.53-13h-2.8l5.28 14.96h4.05l5.26-14.96z"/><path fill="#fff" fill-rule="evenodd" d="M34.47 110.26h2.77l4.49-13.01 4.53 13.01h2.8L43.78 95.3h-4.05l-5.26 14.96z"/></svg>