<svg id="Capa_1" xmlns="http://www.w3.org/2000/svg" viewBox="0 0 97.8 97.8"><style>.st0{fill:#6c6b6b}</style><path class="st0" d="M48.9 40.5c4.7 0 8.4-3.8 8.4-8.4 0-4.7-3.7-8.4-8.4-8.4s-8.5 3.8-8.4 8.5c0 4.6 3.7 8.3 8.4 8.3z"/><path class="st0" d="M48.9 0C21.9 0 0 21.9 0 48.9s21.9 48.9 48.9 48.9 48.9-21.9 48.9-48.9S75.9 0 48.9 0zm0 14.9c9.5 0 17.2 7.8 17.1 17.4 0 9.4-7.8 17-17.3 17-9.4 0-17.1-7.8-17.1-17.3.1-9.5 7.8-17.2 17.3-17.1zm19.3 41.2c-2.1 2.2-4.6 3.7-7.5 4.8-2.7 1-5.6 1.5-8.5 1.9.4.5.6.7.9 1l11.8 11.8c1.3 1.3 1.6 3 .9 4.6-.8 1.7-2.6 2.8-4.4 2.7-1.1-.1-2-.6-2.8-1.4-3-3-6-5.9-8.9-8.9-.8-.9-1.2-.7-2 .1-3 3.1-6 6.1-9 9.1-1.4 1.3-3 1.6-4.6.8-1.7-.8-2.8-2.5-2.7-4.3.1-1.2.6-2.1 1.4-2.9 3.9-3.9 7.7-7.8 11.6-11.6l.9-.9c-5.3-.6-10-1.8-14.1-5l-1.5-1.2c-1.8-1.7-2-3.7-.6-5.7 1.2-1.7 3.2-2.2 5.3-1.2.4.2.8.4 1.2.7 7.6 5.2 18 5.4 25.6.2.8-.6 1.6-1 2.5-1.3 1.8-.5 3.5.2 4.5 1.8 1.4 1.7 1.4 3.4 0 4.9z"/></svg>