<svg xmlns="http://www.w3.org/2000/svg" viewBox="0 0 60 60"><path d="M35.5 30.995c-.55 0-1 .447-1 1V46h-30V8h30v13.998a1.001 1.001 0 0 0 2 0V4.405A4.409 4.409 0 0 0 32.096 0H6.905a4.41 4.41 0 0 0-4.403 4.405v51.19A4.41 4.41 0 0 0 6.907 60h25.19a4.41 4.41 0 0 0 4.404-4.405v-23.6a1 1 0 0 0-1-1zM6.907 2h25.19A2.409 2.409 0 0 1 34.5 4.405V6h-30V4.405A2.41 2.41 0 0 1 6.906 2zm25.19 56H6.905A2.41 2.41 0 0 1 4.5 55.595V48h30v7.595A2.407 2.407 0 0 1 32.096 58z"/><path d="M19.5 49c-2.205 0-4 1.794-4 4s1.795 4 4 4 4-1.794 4-4-1.794-4-4-4zm0 6c-1.102 0-2-.897-2-2s.898-2 2-2 2 .897 2 2-.896 2-2 2zm-4-50h4a1 1 0 1 0 0-2h-4a1 1 0 1 0 0 2zm7 0h1a1 1 0 1 0 0-2h-1a1 1 0 1 0 0 2zm34.924 22.382a1.01 1.01 0 0 0-.217-1.091l-12-11.997a1 1 0 1 0-1.413 1.414L54.087 26H18.5a1.001 1.001 0 0 0 0 2h35.587L43.794 38.293a1 1 0 0 0 1.415 1.414l12-12c.09-.09.165-.202.216-.325z"/></svg>