<svg xmlns="http://www.w3.org/2000/svg" width="15" height="15" viewBox="0 0 26.649 26.649"><path d="M26.157 1.238A2.296 2.296 0 0 0 24.31.346c-.478 0-.973.133-1.472.395L1.593 11.88c-1.51.793-1.615 1.987-1.59 2.463.024.48.255 1.654 1.84 2.283L4.556 17.7c.515.204 1.09.31 1.71.31.1 0 .193-.014.29-.02-.037.05-.082.086-.116.136-.505.757-.53 1.783-.072 2.888l.02.05c.804 1.78 1.697 3.788 1.805 4.067a1.828 1.828 0 0 0 1.688 1.173c1.147 0 1.487-.552 3.362-3.604.146-.225.47-.745.526-1.407.22.09.425.17.6.242l3.01 1.226c.602.247 1.13.464 1.408.58a1.807 1.807 0 0 0 .937.263c1.368 0 1.696-1.185 1.872-1.82.087-.314.207-.75.336-1.23l4.59-16.857c.345-1.273-.08-2.086-.363-2.458zm-14.43 20.5S10.025 24.51 9.88 24.51c-.004 0-.006-.002-.008-.006-.167-.45-1.85-4.176-1.85-4.176-.31-.747-.253-1.387.28-1.387.117 0 .257.032.42.1l1.307.68c.217.148.455.277.717.38l.066.025.123.062c1.01.534 1.33.727.79 1.552zM24.79 3.225l-4.587 16.858c-.26.95-.475 1.727-.48 1.727a.068.068 0 0 1-.008-.024c0-.006-.748-.312-1.662-.686l-3.01-1.226c-.914-.37-2.413-.97-3.332-1.323l-.15-.06-.563-.292c-.557-.427-.606-1.13-.046-1.728l9.313-9.97c.374-.4.515-.606.434-.606-.064 0-.27.133-.617.404L8.298 15.592c-.514.4-1.295.625-2.03.625-.375 0-.74-.06-1.05-.183L2.503 14.96c-.917-.362-.952-1.032-.08-1.492l21.248-11.14c.245-.13.46-.19.638-.19.457 0 .665.4.48 1.086z"/></svg>