<svg xmlns="http://www.w3.org/2000/svg" width="30" height="30" viewBox="0 0 96.496 96.496"><path d="M92.5 65.178c-2.874-3.446-6.255-6.387-9.454-9.51-2.886-2.815-3.068-4.448-.748-7.697 2.532-3.545 5.255-6.955 7.81-10.485 2.385-3.3 4.823-6.59 6.078-10.54.796-2.512.092-3.622-2.485-4.062-.443-.077-.902-.08-1.354-.08l-15.29-.02c-1.882-.027-2.923.794-3.59 2.463-.898 2.256-1.825 4.51-2.896 6.687-2.43 4.936-5.144 9.707-8.95 13.747-.838.89-1.766 2.017-3.168 1.553-1.754-.64-2.27-3.53-2.242-4.507l-.015-17.647c-.34-2.522-.9-3.646-3.402-4.136l-15.882.003c-2.12 0-3.182.82-4.314 2.145-.653.766-.85 1.263.492 1.517 2.636.5 4.12 2.205 4.515 4.848.632 4.223.588 8.463.224 12.703-.107 1.24-.32 2.474-.81 3.63-.77 1.817-2.01 2.187-3.638 1.07-1.476-1.013-2.512-2.44-3.526-3.875-3.81-5.382-6.848-11.186-9.326-17.285-.716-1.762-1.95-2.83-3.818-2.86a392.148 392.148 0 0 0-13.762.005c-2.76.052-3.583 1.392-2.46 3.894C5.486 37.85 11.047 48.655 18.306 58.497c3.727 5.05 8.006 9.51 13.534 12.67 6.264 3.582 13.008 4.66 20.11 4.328 3.327-.156 4.326-1.02 4.48-4.336.104-2.268.36-4.523 1.48-6.56 1.098-2 2.76-2.382 4.678-1.138.96.623 1.767 1.416 2.53 2.252 1.872 2.048 3.677 4.158 5.62 6.137 2.437 2.48 5.324 3.946 8.954 3.647l14.052.003c2.264-.148 3.438-2.924 2.138-5.45-.913-1.77-2.11-3.347-3.383-4.872z"/></svg>