<svg xmlns="http://www.w3.org/2000/svg" width="30" height="30" viewBox="0 0 90.677 90.677"><path d="M82.287 45.907c-.937-4.07-4.267-7.074-8.275-7.52-9.49-1.06-19.098-1.066-28.66-1.06-9.566-.006-19.173 0-28.665 1.06-4.006.447-7.334 3.45-8.27 7.52C7.083 51.704 7.067 58.032 7.067 64c0 5.97 0 12.297 1.334 18.094.937 4.07 4.265 7.073 8.273 7.52 9.49 1.062 19.097 1.066 28.662 1.062 9.566.005 19.17 0 28.664-1.06 4.005-.45 7.335-3.452 8.27-7.522C83.605 76.297 83.61 69.97 83.61 64c0-5.97.01-12.296-1.323-18.093zM28.9 50.4h-5.54v29.438h-5.146V50.4h-5.44v-4.822H28.9V50.4zm13.977 29.44h-4.63v-2.786c-1.838 2.108-3.584 3.136-5.285 3.136-1.49 0-2.517-.604-2.98-1.897-.252-.772-.408-1.994-.408-3.796V54.31H34.2v18.796c0 1.084 0 1.647.04 1.8.112.717.463 1.08 1.083 1.08.928 0 1.898-.714 2.924-2.165V54.31h4.63v25.53zm17.573-7.663c0 2.36-.16 4.062-.468 5.144-.618 1.9-1.855 2.87-3.695 2.87-1.646 0-3.234-.914-4.78-2.824v2.474H46.88V45.578h4.626v11.19c1.494-1.84 3.08-2.77 4.78-2.77 1.84 0 3.08.97 3.696 2.88.31 1.027.468 2.715.468 5.132v10.167zm17.457-4.26h-9.25v4.526c0 2.363.772 3.543 2.362 3.543 1.138 0 1.8-.62 2.065-1.855.043-.25.104-1.278.104-3.133h4.718v.675c0 1.49-.057 2.518-.1 2.98a6.556 6.556 0 0 1-1.08 2.77c-1.28 1.855-3.178 2.77-5.594 2.77-2.42 0-4.262-.872-5.6-2.615-.98-1.278-1.484-3.29-1.484-6.003v-8.94c0-2.73.447-4.726 1.43-6.016C66.816 54.87 68.657 54 71.02 54c2.32 0 4.16.87 5.457 2.618.97 1.29 1.432 3.286 1.432 6.015v5.285h-.003z"/><path d="M70.978 58.163c-1.546 0-2.32 1.18-2.32 3.54v2.363h4.624v-2.362c0-2.36-.774-3.54-2.304-3.54zm-17.166 0c-.762 0-1.534.36-2.307 1.125v15.56c.772.773 1.545 1.14 2.307 1.14 1.334 0 2.012-1.14 2.012-3.446V61.646c0-2.302-.678-3.483-2.012-3.483zm2.584-23.19c1.705 0 3.48-1.036 5.34-3.168v2.814h4.675V8.82h-4.674v19.718c-1.036 1.464-2.018 2.188-2.953 2.188-.626 0-.994-.37-1.096-1.095-.057-.152-.057-.72-.057-1.816V8.82h-4.66v20.4c0 1.822.156 3.055.414 3.836.47 1.307 1.507 1.917 3.012 1.917zM23.85 20.598v14.02h5.185V20.6L35.27 0h-5.24l-3.54 13.595L22.812 0h-5.455c1.093 3.21 2.23 6.434 3.323 9.646 1.663 4.828 2.7 8.468 3.17 10.952zm18.37 14.375c2.34 0 4.16-.88 5.452-2.64.98-1.292 1.45-3.326 1.45-6.068V17.23c0-2.757-.468-4.773-1.45-6.076-1.29-1.765-3.11-2.646-5.453-2.646-2.33 0-4.15.88-5.444 2.646-.993 1.303-1.463 3.32-1.463 6.077v9.035c0 2.742.47 4.776 1.463 6.067 1.293 1.76 3.113 2.64 5.443 2.64zm-2.232-18.68c0-2.386.724-3.576 2.23-3.576 1.508 0 2.23 1.19 2.23 3.577v10.852c0 2.387-.722 3.58-2.23 3.58-1.506 0-2.23-1.193-2.23-3.58V16.294z"/></svg>